<!-- Generated by IcoMoon.io -->
<svg version="1.1" xmlns="http://www.w3.org/2000/svg" width="1072" height="1024" viewBox="0 0 1072 1024">
<title></title>
<g id="icomoon-ignore">
</g>
<path fill="#53535c" d="M1025.4 621.101c-10.988 0-19.895 8.908-19.895 19.893v105.612c0 15.437-12.559 27.998-27.998 27.998h-883.014c-15.438 0-27.997-12.559-27.997-27.998v-51.816c8.541 3.891 18.016 6.079 27.997 6.079h658.317c10.988 0 19.895-8.908 19.895-19.895s-8.908-19.893-19.895-19.893h-658.317c-15.438 0-27.997-12.559-27.997-27.998v-360.761c0-15.437 12.559-27.998 27.997-27.998h658.317c10.988 0 19.895-8.907 19.895-19.894s-8.908-19.894-19.895-19.894h-658.317c-37.377 0-67.786 30.408-67.786 67.787v474.285c0 37.377 30.408 67.787 67.786 67.787h883.014c37.379 0 67.787-30.41 67.787-67.787v-105.612c0-10.986-8.908-19.893-19.893-19.893z"></path>
<path fill="#53535c" d="M255.907 366.304c-3.631-8.829-12.141-14.528-21.685-14.528-0.008 0-0.014 0-0.022 0-9.553 0.008-18.064 5.725-21.681 14.569-0.062 0.15-0.121 0.3-0.179 0.454l-58.875 154.584c-3.911 10.267 1.243 21.759 11.511 25.671s21.762-1.242 25.672-11.51l9.782-25.687h67.131l9.673 25.63c3.006 7.968 10.576 12.875 18.615 12.875 2.333 0 4.708-0.413 7.021-1.286 10.28-3.88 15.467-15.36 11.589-25.638l-58.341-154.591c-0.066-0.178-0.137-0.359-0.211-0.542zM215.585 470.068l18.565-48.745 18.396 48.745h-36.962z"></path>
<path fill="#53535c" d="M350.97 354.096c-5.281 0-10.349 2.101-14.082 5.842-3.73 3.738-5.824 8.808-5.813 14.089 0 0.003 0.112 58.523 0.112 75.872 0 20.927 0.196 75.762 0.199 76.316 0.020 5.276 2.137 10.328 5.88 14.049 3.728 3.7 8.765 5.775 14.016 5.775h0.074c1.301-0.005 32.035-0.124 44.319-0.338 46.199-0.808 79.73-41.029 79.73-95.635 0-57.403-32.689-95.969-81.34-95.969h-43.094zM435.614 450.065c0 27.446-12.567 55.36-40.636 55.851-5.501 0.096-15.075 0.173-23.87 0.229-0.059-17.968-0.132-43.471-0.132-56.246 0-10.762-0.041-37.35-0.077-56.014h23.165c38.553 0 41.551 43 41.551 56.18z"></path>
<path fill="#53535c" d="M515.787 354.096c-5.281 0-10.349 2.101-14.082 5.842-3.73 3.738-5.821 8.808-5.811 14.089 0 0.003 0.109 58.523 0.109 75.872 0 20.927 0.199 75.762 0.199 76.316 0.020 5.276 2.137 10.328 5.88 14.049 3.728 3.7 8.765 5.775 14.016 5.775h0.077c1.301-0.005 32.032-0.124 44.317-0.338 46.199-0.808 79.73-41.029 79.73-95.635 0-57.403-32.689-95.969-81.34-95.969h-43.094zM600.433 450.065c0 27.446-12.564 55.36-40.636 55.851-5.501 0.096-15.075 0.173-23.87 0.229-0.059-17.968-0.132-43.471-0.132-56.246 0-10.762-0.041-37.35-0.074-56.014h23.163c38.553 0 41.551 43 41.551 56.18z"></path>
<path fill="#ffc390" d="M997.401 700.866h-250.56v-496.173h250.558c26.45 0 47.892 21.442 47.892 47.892v400.39c0.003 26.447-21.439 47.892-47.889 47.892z"></path>
<path fill="#53535c" d="M951.586 436.1h-29.849v-29.847c0-10.988-8.905-19.895-19.893-19.895s-19.895 8.908-19.895 19.895v29.847h-29.847c-10.988 0-19.893 8.908-19.893 19.895s8.905 19.895 19.893 19.895h29.849v29.847c0 10.988 8.908 19.895 19.895 19.895s19.893-8.908 19.893-19.895v-29.847h29.849c10.988 0 19.895-8.908 19.895-19.895s-8.91-19.895-19.898-19.895z"></path>
</svg>
