<!-- Generated by IcoMoon.io -->
<svg version="1.1" xmlns="http://www.w3.org/2000/svg" width="32" height="32" viewBox="0 0 32 32">
<title>error</title>
<path fill="#ff8a9d" d="M32 16c0 8.837-7.163 16-16 16s-16-7.163-16-16c0-8.837 7.163-16 16-16s16 7.163 16 16z"></path>
<path fill="#fff" d="M14.547 8.32h2.531l-0.426 10.73h-1.702l-0.403-10.73zM15.824 24.134c-0.418 0-0.769-0.134-1.053-0.403-0.284-0.284-0.426-0.627-0.426-1.030s0.142-0.739 0.426-1.008c0.284-0.284 0.635-0.426 1.053-0.426s0.762 0.142 1.030 0.426c0.269 0.269 0.403 0.605 0.403 1.008s-0.142 0.747-0.426 1.030c-0.269 0.269-0.605 0.403-1.008 0.403z"></path>
</svg>
