<!-- Generated by IcoMoon.io -->
<svg version="1.1" xmlns="http://www.w3.org/2000/svg" width="1024" height="1024" viewBox="0 0 1024 1024">
<title></title>
<g id="icomoon-ignore">
</g>
<path fill="#b884f3" d="M673.139 467.172c-56.502 0-100.831 62.999-100.831 62.999s-41.818-62.999-100.856-62.999c-57.426 0-104.32 47.365-107.389 104.712-1.728 32.399 8.714 57.055 23.429 79.386 29.404 44.616 185.004 147.351 185.004 147.351s155.016-102.344 184.614-147.351c14.746-22.433 25.162-46.986 23.424-79.386-3.067-57.347-49.964-104.712-107.395-104.712z"></path>
<path fill="#53535c" d="M859.297 189.926h-105.651v-11.006c0-98.656-80.745-178.92-179.991-178.92-22.799 0-44.618 4.236-64.709 11.956-20.088-7.72-41.91-11.956-64.707-11.956-99.249 0-179.994 80.264-179.994 178.92v11.006h-99.539c-11.046 0-20 8.956-20 20v794.075c0 11.044 8.954 19.999 20 19.999h694.594c11.046 0 20.001-8.955 20.001-19.999v-794.075c-0.003-11.046-8.957-20-20.004-20zM573.655 40c77.194 0 139.994 62.318 139.994 138.92v11.006h-89.416v-11.006c0-55.552-25.603-105.272-65.692-138.116 4.964-0.532 10.010-0.804 15.114-0.804zM508.948 55.752c44.705 23.222 75.282 69.718 75.282 123.168v11.006h-150.566v-11.006c0-53.45 30.579-99.946 75.284-123.168zM304.248 178.92c0-76.602 62.799-138.92 139.991-138.92 5.107 0 10.153 0.272 15.119 0.804-40.090 32.842-65.692 82.562-65.692 138.116v11.006h-89.418v-11.006zM184.706 229.926h59.542v754.074h-59.542v-754.074zM839.299 984h-555.052v-754.074h109.42v89.181h-2.125c-11.046 0-19.999 8.955-19.999 19.999s8.952 20.001 19.999 20.001h44.25c11.044 0 19.999-8.957 19.999-20.001s-8.955-19.999-19.999-19.999h-2.125v-89.181h279.982v89.181h-2.125c-11.046 0-19.999 8.955-19.999 19.999s8.952 20.001 19.999 20.001h44.25c11.044 0 19.999-8.957 19.999-20.001s-8.955-19.999-19.999-19.999h-2.125v-89.181h85.652v754.074h-0.003z"></path>
</svg>
