<!-- Generated by IcoMoon.io -->
<svg version="1.1" xmlns="http://www.w3.org/2000/svg" width="1024" height="1024" viewBox="0 0 1024 1024">
<title></title>
<g id="icomoon-ignore">
</g>
<path fill="#53535c" d="M920.212 565.573c-3.054-57.029-27.22-110.582-68.045-150.792-6.351-6.254-12.997-12.076-19.907-17.454v-77.286c0-176.471-143.665-320.041-320.256-320.041-176.589 0-320.253 143.57-320.253 320.041v77.284c-6.91 5.376-13.56 11.2-19.912 17.457-40.822 40.212-64.988 93.763-68.042 150.792-3.032 56.794 11.452 106.13 46.96 159.982 34.854 52.846 157.597 168.932 254.429 257.011 29.376 26.721 67.42 41.434 107.131 41.434h0.054c39.731-0.013 77.791-14.753 107.162-41.508 96.407-87.823 218.685-203.689 253.742-256.957 23.898-36.332 50.831-87.35 46.938-159.962zM231.752 320.041c0-154.415 125.722-280.041 280.253-280.041s280.253 125.626 280.253 280.041v52.498c-17.72-8.492-36.472-14.505-55.823-17.856v-34.642c0-123.673-100.68-224.287-224.433-224.287s-224.43 100.614-224.43 224.287v34.639c-19.348 3.351-38.101 9.364-55.823 17.856v-52.495h0.002zM696.438 351.585c-85.266 1.393-154.941 52.26-184.105 77.251-28.362-25.244-96.169-75.914-184.76-77.253v-31.542c0-101.617 82.737-184.287 184.433-184.287s184.433 82.67 184.433 184.287v31.544zM839.859 703.547c-25.569 38.851-113.382 127.414-247.265 249.372-45.732 41.659-114.729 41.682-160.492 0.054-134.482-122.324-222.541-210.913-247.953-249.444-30.492-46.241-42.954-88.128-40.408-135.821 5.202-97.132 86.060-176.156 180.247-176.156 99.612 0 172.618 77.494 173.32 78.249 3.712 4.035 8.924 6.356 14.405 6.446 5.407 0.061 10.767-2.086 14.607-5.998 0.771-0.788 78.336-78.694 173.691-78.694 94.193 0 175.055 79.025 180.257 176.156 2.586 48.22-9.5 88.845-40.41 135.836z"></path>
<path fill="#6368e5" d="M607.828 642.916c0-52.92-42.9-95.821-95.821-95.821s-95.821 42.9-95.821 95.821c0 33.928 17.636 63.734 44.234 80.763l-22.728 103.439h148.628l-22.728-103.439c26.601-17.029 44.234-46.838 44.234-80.763z"></path>
</svg>
