<!-- Generated by IcoMoon.io -->
<svg version="1.1" xmlns="http://www.w3.org/2000/svg" width="1024" height="1024" viewBox="0 0 1024 1024">
<title></title>
<g id="icomoon-ignore">
</g>
<path fill="#53535c" d="M512 1024c-6.802 0-13.133-3.456-16.814-9.172l-92.803-144.097c-92.219-23.557-175.616-77.327-235.542-152.046-62.59-78.042-97.060-176.228-97.060-276.467 0-118.121 46-229.171 129.524-312.695 83.521-83.524 194.571-129.522 312.695-129.522 118.121 0 229.171 45.998 312.696 129.522 83.523 83.524 129.523 194.574 129.523 312.695 0 100.239-34.47 198.426-97.060 276.465-59.927 74.721-143.322 128.492-235.543 152.049l-92.803 144.097c-3.684 5.716-10.015 9.172-16.814 9.172zM512 40c-221.786 0-402.221 180.434-402.221 402.214 0 187.604 127.348 348.603 309.687 391.521 5.043 1.188 9.428 4.285 12.234 8.64l80.3 124.687 80.297-124.687c2.803-4.355 7.191-7.455 12.232-8.64 182.341-42.918 309.688-203.917 309.688-391.521 0.003-221.78-180.431-402.214-402.217-402.214z"></path>
<path fill="#ff8a9d" d="M512 730.847c159.411 0 288.637-129.226 288.637-288.635s-129.226-288.634-288.637-288.634c-159.409 0-288.637 129.225-288.637 288.634s129.229 288.635 288.637 288.635z"></path>
<path fill="#53535c" d="M633.362 315.914h-45.292v-3.282c0-42.179-34.214-76.491-76.268-76.491-42.058 0-76.273 34.313-76.273 76.491v3.282h-44.887c-11.046 0-19.999 8.952-19.999 19.999v201.057c0 34.524 28.088 62.612 62.61 62.612h157.496c34.524 0 62.61-28.088 62.61-62.612v-201.057c0-11.046-8.952-19.999-19.999-19.999zM475.53 312.632c0-20.122 16.271-36.49 36.273-36.49 19.999 0 36.268 16.371 36.268 36.49v3.282h-72.54v-3.282zM613.361 536.97c0 12.47-10.14 22.612-22.61 22.612h-157.496c-12.47 0-22.61-10.143-22.61-22.612v-181.056h24.886v35.016c0 11.044 8.952 19.999 19.999 19.999s20.001-8.955 20.001-19.999v-35.016h72.54v35.016c0 11.044 8.955 19.999 20.001 19.999s19.999-8.955 19.999-19.999v-35.016h25.29v181.056z"></path>
</svg>
