<!-- Generated by IcoMoon.io -->
<svg version="1.1" xmlns="http://www.w3.org/2000/svg" width="1024" height="1024" viewBox="0 0 1024 1024">
<title></title>
<g id="icomoon-ignore">
</g>
<path fill="#53535c" d="M950.587 56.963h-877.175c-40.48 0-73.412 33.002-73.412 73.568v775.635c0 33.564 27.202 60.872 60.634 60.872h902.73c33.434 0 60.634-27.305 60.634-60.872v-775.635c0.003-40.566-32.929-73.568-73.411-73.568zM40 130.531c0-18.508 14.988-33.566 33.412-33.566h877.175c18.424 0 33.413 15.058 33.413 33.566v118.864h-944v-118.864zM984 906.166c0 11.51-9.257 20.872-20.634 20.872h-902.732c-11.38 0-20.634-9.362-20.634-20.872v-616.773h944v616.773z"></path>
<path fill="#53535c" d="M657.943 153.18h-26.867c-11.044 0-20.001 8.956-20.001 20s8.957 20 20.001 20h26.867c11.044 0 19.999-8.956 19.999-20 0-11.046-8.955-20-19.999-20z"></path>
<path fill="#53535c" d="M782.211 153.18h-26.867c-11.044 0-19.999 8.956-19.999 20s8.955 20 19.999 20h26.867c11.046 0 19.999-8.956 19.999-20 0-11.046-8.952-20-19.999-20z"></path>
<path fill="#53535c" d="M906.473 153.18h-26.867c-11.044 0-19.999 8.956-19.999 20s8.955 20 19.999 20h26.867c11.044 0 19.999-8.956 19.999-20 0-11.046-8.952-20-19.999-20z"></path>
<path fill="#53535c" d="M336.43 153.18h-193.899c-11.044 0-20 8.956-20 20s8.956 20 20 20h193.899c11.044 0 19.999-8.956 19.999-20 0-11.046-8.955-20-19.999-20z"></path>
<path fill="#ffc390" d="M512 866.826c141.814 0 256.778-114.964 256.778-256.776 0-141.814-114.964-256.778-256.778-256.778-141.811 0-256.775 114.964-256.775 256.778 0 141.811 114.964 256.776 256.775 256.776z"></path>
<path fill="#53535c" d="M591.977 608.407c14.413-17.728 23.060-40.323 23.060-64.899 0-56.814-46.221-103.043-103.040-103.043-56.817 0-103.040 46.226-103.040 103.043 0 24.571 8.645 47.158 23.050 64.886-28.152 15.291-47.201 45.192-47.201 79.007v68.549c0 11.044 8.955 19.999 19.999 19.999h214.382c11.046 0 20.001-8.955 20.001-19.999v-68.549c0.003-33.748-19.067-63.677-47.212-78.994zM511.997 480.466c34.76 0 63.040 28.28 63.040 63.043 0 34.76-28.28 63.040-63.040 63.040s-63.040-28.28-63.040-63.040c0-34.762 28.28-63.043 63.040-63.043zM599.191 735.949h-174.382v-48.548c0-25.795 19.973-47.483 45.578-49.631 12.731 5.642 26.813 8.778 41.613 8.778s28.882-3.136 41.615-8.778c25.582 2.143 45.578 23.885 45.578 49.631v48.548h-0.003z"></path>
</svg>
