<?xml version="1.0" encoding="utf-8"?>
<!-- Svg Vector Icons : http://www.onlinewebfonts.com/icon -->
<!DOCTYPE svg PUBLIC "-//W3C//DTD SVG 1.1//EN" "http://www.w3.org/Graphics/SVG/1.1/DTD/svg11.dtd">
<svg version="1.1" xmlns="http://www.w3.org/2000/svg" xmlns:xlink="http://www.w3.org/1999/xlink" x="0px" y="0px" viewBox="0 0 1000 1000" enable-background="new 0 0 1000 1000" xml:space="preserve">
<metadata> Svg Vector Icons : http://www.onlinewebfonts.com/icon </metadata>
<g><path d="M709.8,10H290.2C252.4,10,222,40.5,222,78.1v843.6c0,37.7,30.5,68.3,68.2,68.3h419.7c37.7,0,68.2-30.5,68.2-68.3V78.1C778,40.5,747.5,10,709.8,10z M489.8,962.2c-18.9,0-34.1-15.3-34.1-34.1s15.3-34.1,34.1-34.1c18.7,0,34,15.4,34,34.1C523.7,947,508.5,962.2,489.8,962.2z M738.9,864.3H261V54.7h477.9V864.3z"/></g>
</svg>