<svg aria-hidden="true" style="position: absolute; width: 0; height: 0; overflow: hidden;" version="1.1" xmlns="http://www.w3.org/2000/svg" xmlns:xlink="http://www.w3.org/1999/xlink">
<defs>
<symbol id="icon-caret-down" viewBox="0 0 32 32">
<path d="M31.406 7.594c-0.396-0.396-0.864-0.594-1.406-0.594h-28c-0.542 0-1.011 0.198-1.406 0.594s-0.594 0.865-0.594 1.407c0 0.542 0.198 1.010 0.594 1.406l14 14c0.396 0.396 0.865 0.594 1.406 0.594s1.011-0.198 1.406-0.594l14-14c0.395-0.396 0.594-0.864 0.594-1.406s-0.199-1.010-0.594-1.406z"></path>
</symbol>
<symbol id="icon-three-dots-svgrepo-com" viewBox="0 0 32 32">
<path d="M3.961 12.040c-2.189 0-3.961 1.771-3.961 3.959s1.77 3.96 3.961 3.96c2.185 0 3.959-1.769 3.959-3.96 0-2.188-1.774-3.959-3.959-3.959zM16.205 12.040c-2.184 0-3.961 1.77-3.961 3.958s1.775 3.96 3.961 3.96 3.963-1.769 3.963-3.96c-0.002-2.187-1.777-3.958-3.963-3.958zM28.042 12.040c-2.188 0-3.962 1.771-3.962 3.96 0 2.186 1.771 3.958 3.962 3.958 2.184 0 3.958-1.769 3.958-3.958s-1.774-3.96-3.958-3.96z"></path>
</symbol>
</defs>
</svg>
