<svg aria-hidden="true" style="position: absolute; width: 0; height: 0; overflow: hidden;" version="1.1" xmlns="http://www.w3.org/2000/svg" xmlns:xlink="http://www.w3.org/1999/xlink">
<defs>
<symbol id="icon-like-50313-PM" viewBox="0 0 32 32">
<title>like-50313-PM</title>
<path stroke-linejoin="miter" stroke-linecap="butt" stroke-miterlimit="4" stroke-width="0.35" d="M11.171 5.157c-3.312 0-6 2.688-6 6 0 6.738 6.797 8.504 11.428 15.165 4.379-6.62 11.428-8.643 11.428-15.165 0-3.312-2.688-6-6-6-2.402 0-4.47 1.419-5.428 3.459-0.958-2.041-3.026-3.459-5.428-3.459z"></path>
</symbol>
<symbol id="icon-phone-50313-PM" viewBox="0 0 32 32">
<title>phone-50313-PM</title>
<path d="M22.714 0.32h-13.427c-1.21 0-2.182 0.976-2.182 2.179v26.995c0 1.206 0.976 2.186 2.182 2.186h13.43c1.206 0 2.182-0.976 2.182-2.186v-26.995c-0.003-1.203-0.979-2.179-2.186-2.179zM15.674 30.79c-0.605 0-1.091-0.49-1.091-1.091s0.49-1.091 1.091-1.091c0.598 0 1.088 0.493 1.088 1.091-0.003 0.605-0.49 1.091-1.088 1.091zM23.645 27.658h-15.293v-25.907h15.293v25.907z"></path>
</symbol>
<symbol id="icon-search-white" viewBox="0 0 32 32">
<title>search-white</title>
<path  d="M21.856 18.989c3.841-5.424 2.557-12.935-2.868-16.775s-12.935-2.557-16.775 2.869c-3.84 5.424-2.557 12.934 2.869 16.774 3.872 2.741 8.99 2.952 13.074 0.54l8.873 8.82c0.958 1.008 2.552 1.049 3.56 0.091s1.049-2.551 0.092-3.56c-0.030-0.032-0.060-0.062-0.092-0.092l-8.732-8.667zM12.028 19.811c-4.286 0.001-7.761-3.471-7.764-7.758-0.001-4.286 3.471-7.761 7.759-7.763 4.281-0.002 7.754 3.465 7.762 7.746 0.007 4.287-3.463 7.768-7.751 7.775-0.002 0-0.003 0-0.006 0z"></path>
</symbol>
<symbol id="icon-search" viewBox="0 0 32 32">
<title>search</title>
<path  d="M21.856 18.989c3.841-5.424 2.557-12.935-2.868-16.775s-12.935-2.557-16.775 2.869c-3.84 5.424-2.557 12.934 2.869 16.774 3.872 2.741 8.99 2.952 13.074 0.54l8.873 8.82c0.958 1.008 2.552 1.049 3.56 0.091s1.049-2.551 0.092-3.56c-0.030-0.032-0.060-0.062-0.092-0.092l-8.732-8.667zM12.028 19.811c-4.286 0.001-7.761-3.471-7.764-7.758-0.001-4.286 3.471-7.761 7.759-7.763 4.281-0.002 7.754 3.465 7.762 7.746 0.007 4.287-3.463 7.768-7.751 7.775-0.002 0-0.003 0-0.006 0z"></path>
</symbol>
<symbol id="icon-user-white" viewBox="0 0 32 32">
<title>user-white</title>
<path  d="M16 0c-8.836 0-16 7.164-16 16s7.163 16 16 16c8.836 0 16-7.164 16-16s-7.164-16-16-16zM16.048 23.548v-0h-6.932c0-4.998 4.39-4.997 5.364-6.304l0.111-0.596c-1.369-0.694-2.335-2.366-2.335-4.321 0-2.576 1.676-4.665 3.743-4.665s3.743 2.089 3.743 4.665c0 1.939-0.949 3.601-2.299 4.305l0.127 0.677c1.069 1.244 5.312 1.325 5.312 6.239h-6.834z"></path>
</symbol>
<symbol id="iconSHOPPINGCART" viewBox="0 0 32 32">
<title>SHOPPING-CART</title>
<path  d="M31.182 9.067v0l-4.409 9.778c-0.22 0.488-0.689 0.829-1.241 0.86l-0.004 0-12.658 0.844 0.729 2.092h13.796c1.62 0 2.933 1.313 2.933 2.933s-1.313 2.933-2.933 2.933c-1.619 0-2.932-1.312-2.933-2.931v-0h-13.689c-0.001 1.619-1.314 2.932-2.933 2.932s-2.933-1.313-2.933-2.933 1.313-2.933 2.933-2.933h2.649l-5.653-16.133h-3.36c-0.81 0-1.467-0.657-1.467-1.467s0.657-1.467 1.467-1.467h4.409c0.636 0.005 1.177 0.409 1.383 0.975l0.003 0.010 0.853 2.441h21.707c0.002 0 0.005-0 0.007-0 0.81 0 1.467 0.656 1.468 1.467v0c-0.005 0.217-0.050 0.422-0.129 0.61l0.004-0.011zM9.156 9.932l2.702 7.746 12.604-0.841 3.111-6.905h-18.418z"></path>
</symbol>
</defs>
</svg>
