<svg width="80" height="80" viewBox="0 0 80 80" fill="none" xmlns="http://www.w3.org/2000/svg">
<path d="M40 64.8499C53.7243 64.8499 64.85 53.7242 64.85 39.9999C64.85 26.2756 53.7243 15.1499 40 15.1499C26.2758 15.1499 15.15 26.2756 15.15 39.9999C15.15 53.7242 26.2758 64.8499 40 64.8499Z" fill="#FFC390"/>
<path d="M75.5649 45.3036C74.7162 45.1398 73.898 45.695 73.7349 46.5422C70.629 62.6611 56.4413 74.3602 40.0001 74.3602C23.9052 74.3602 9.97022 63.1488 6.47631 47.555L6.88413 47.9628C7.18928 48.268 7.58913 48.4206 7.98897 48.4206C8.38881 48.4206 8.78866 48.268 9.09366 47.963C9.70397 47.3528 9.70397 46.3636 9.09381 45.7533L5.88053 42.5398C5.58756 42.2467 5.19006 42.082 4.77569 42.082C4.36131 42.082 3.96381 42.2467 3.67085 42.5398L0.45772 45.7533C-0.152437 46.3634 -0.152437 47.3527 0.457876 47.963C1.06788 48.5733 2.05741 48.5731 2.66756 47.9628L3.246 47.3844C6.73303 64.8416 22.149 77.4852 40.0001 77.4852C57.9365 77.4852 73.4146 64.7205 76.8035 47.1336C76.9668 46.2863 76.4123 45.4669 75.5649 45.3036Z" fill="#53535C"/>
<path d="M79.5422 32.0368C78.9322 31.4265 77.9427 31.4267 77.3325 32.037L76.7541 32.6154C73.2671 15.1582 57.8511 2.51465 40 2.51465C22.0636 2.51465 6.58551 15.2793 3.19661 32.8662C3.03333 33.7137 3.58786 34.5329 4.4352 34.6962C5.28364 34.8592 6.10192 34.3046 6.2652 33.4576C9.37129 17.3387 23.5589 5.63965 40 5.63965C56.0949 5.63965 70.0299 16.851 73.5238 32.4448L73.116 32.037C72.506 31.4268 71.5167 31.4267 70.9063 32.0368C70.296 32.647 70.296 33.6362 70.9061 34.2465L74.1192 37.4599C74.4122 37.7531 74.8097 37.9178 75.2241 37.9178C75.6385 37.9178 76.036 37.7531 76.3289 37.4599L79.5421 34.2465C80.1527 33.6363 80.1527 32.647 79.5422 32.0368Z" fill="#53535C"/>
<path d="M41.6489 46.8876C41.8383 46.9631 42.0336 46.9987 42.2258 46.9987C42.847 46.9987 43.4345 46.6256 43.6781 46.0131L48.0023 35.1413C48.3212 34.3395 47.9297 33.4309 47.128 33.112C46.3264 32.7932 45.4175 33.1845 45.0986 33.9865L40.7744 44.8582C40.4554 45.6601 40.847 46.5687 41.6489 46.8876Z" fill="#53535C"/>
<path d="M50.4786 36.1266H54.0661L50.25 44.8073C49.9027 45.5973 50.2616 46.5191 51.0516 46.8665C51.2563 46.9565 51.4696 46.9991 51.6797 46.9991C52.2806 46.999 52.8536 46.6504 53.1108 46.0651L57.8902 35.1932C58.1025 34.7099 58.0568 34.1523 57.7683 33.7104C57.4797 33.2684 56.9877 33.002 56.4599 33.002H50.4788C49.6159 33.002 48.9163 33.7016 48.9163 34.5645C48.9161 35.427 49.6156 36.1266 50.4786 36.1266Z" fill="#53535C"/>
<path d="M30.4779 43.0214C30.759 43.4975 31.2705 43.7895 31.8234 43.7895H35.6871C35.6827 44.3655 35.6782 44.9172 35.6738 45.4223C35.6665 46.2853 36.3601 46.9908 37.2229 46.9983H37.2366C38.0932 46.9983 38.7913 46.3075 38.7988 45.4492C38.8024 45.0403 38.8071 44.46 38.8124 43.7812C39.5993 43.7002 40.2132 43.0353 40.2132 42.227C40.2132 41.4258 39.6102 40.7655 38.8332 40.675C38.8473 38.1317 38.8526 35.5712 38.8207 35.1878C38.7371 34.183 38.1234 33.3606 37.2571 33.0922C36.3921 32.8247 35.4826 33.1475 34.8237 33.9559C34.2049 34.7148 31.5627 39.4651 30.4554 41.4722C30.1882 41.9564 30.1968 42.5453 30.4779 43.0214ZM35.7174 38.4826C35.7151 39.1575 35.7118 39.9001 35.7076 40.6645H34.481C34.9152 39.8909 35.3373 39.1455 35.7174 38.4826Z" fill="#53535C"/>
<path d="M29.5327 47.0796C30.3955 47.0688 31.0861 46.3603 31.0753 45.4975C31.0647 44.6414 30.3672 43.9547 29.5135 43.9547C29.5068 43.9547 29.5 43.9547 29.4933 43.9549C28.6379 43.9655 27.7391 43.9735 26.9271 43.9774C27.4893 43.2163 28.211 42.2189 29.1227 40.9163C29.8419 39.8888 30.3121 38.9119 30.5205 38.013C30.5718 37.8136 30.6143 37.5316 30.6147 37.2396C30.6182 34.8439 28.6658 32.895 26.2702 32.895C24.199 32.895 22.4063 34.3688 22.0072 36.3991C21.841 37.2458 22.3924 38.0671 23.2393 38.2335C24.0866 38.4002 24.9074 37.8483 25.0736 37.0014C25.1854 36.4327 25.6886 36.02 26.2702 36.02C26.916 36.02 27.446 36.5247 27.4871 37.1602L27.4597 37.3741C27.3664 37.7305 27.1338 38.308 26.5625 39.1242C24.8443 41.5792 23.8193 42.9213 23.2686 43.6422C22.5626 44.5667 22.1736 45.076 22.4335 45.9216C22.5865 46.4186 22.9768 46.8152 23.4788 46.9827C23.6874 47.0522 23.8544 47.1078 25.9883 47.1078C26.8261 47.1077 27.9671 47.0992 29.5327 47.0796Z" fill="#53535C"/>
<!-- <defs>
<clipPath id="clip0">
<rect width="80" height="80" fill="white"/>
</clipPath>
</defs> -->
</svg>
