<svg width="80" height="80" viewBox="0 0 80 80" fill="none" xmlns="http://www.w3.org/2000/svg">
<path d="M78.4375 53.1806H78.3901V44.0843C78.3895 43.8009 78.3329 43.6384 78.2772 43.5L72.6133 28.5169C72.3836 27.909 71.8017 27.5069 71.1517 27.5069H61.9092V17.7137C61.9092 15.3662 60.0006 13.4565 57.6547 13.4565H30.1247C30.6265 14.4458 31.0337 15.4914 31.3344 16.5815H57.6547C58.2775 16.5815 58.7842 17.0895 58.7842 17.7137V53.1804H14.1094V36.125C13.0298 35.9533 11.9848 35.6781 10.9844 35.3098V53.1806H10.937C10.074 53.1806 9.37451 53.8801 9.37451 54.7431V64.354C9.37451 65.217 10.074 65.9165 10.937 65.9165H18.1881C18.074 66.4597 18.014 67.0226 18.014 67.5993C18.014 72.0876 21.6475 75.7392 26.1137 75.7392C30.5798 75.7392 34.2134 72.0876 34.2134 67.5993C34.2134 67.0226 34.1534 66.4597 34.0394 65.9165H57.0456C56.9315 66.4597 56.8715 67.0226 56.8715 67.5993C56.8715 72.0876 60.5051 75.7392 64.9714 75.7392C69.4376 75.7392 73.0711 72.0876 73.0711 67.5993C73.0711 67.0226 73.0111 66.4597 72.897 65.9165H78.4375C79.3003 65.9165 80 65.217 80 64.354V54.7431C80 53.8803 79.3003 53.1806 78.4375 53.1806ZM61.9095 30.632H70.072L74.5667 42.5218H61.9095V30.632ZM61.9095 45.6468H75.2653V53.1798H61.9095V45.6468ZM26.1139 72.6142C23.3708 72.6142 21.1392 70.3647 21.1392 67.5993C21.1392 64.8342 23.3709 62.5845 26.1139 62.5845C28.8569 62.5845 31.0886 64.834 31.0886 67.5993C31.0886 70.3647 28.857 72.6142 26.1139 72.6142ZM64.9714 72.6142C62.2283 72.6142 59.9965 70.3647 59.9965 67.5993C59.9965 64.8342 62.2283 62.5845 64.9714 62.5845C67.7145 62.5845 69.9461 64.834 69.9461 67.5993C69.9461 70.3647 67.7145 72.6142 64.9714 72.6142ZM76.875 62.7915H71.525C71.5179 62.7915 71.5109 62.7917 71.5039 62.7918C70.0286 60.7726 67.6498 59.4597 64.9715 59.4597C62.2934 59.4597 59.9147 60.7726 58.4394 62.7917H32.6686C32.6611 62.7917 32.6537 62.7918 32.6462 62.792C31.1708 60.7728 28.792 59.4598 26.1139 59.4598C23.4358 59.4598 21.0572 60.7728 19.5817 62.7918H12.4997V56.3059H76.875V62.7915Z" fill="#53535C"/>
<path d="M16.7511 37.8953C26.0025 37.8953 33.5022 30.3661 33.5022 21.0783C33.5022 11.7905 26.0025 4.26123 16.7511 4.26123C7.49972 4.26123 0 11.7905 0 21.0783C0 30.3661 7.49972 37.8953 16.7511 37.8953Z" fill="#FF8A9D"/>
<path d="M19.6654 23.3723H16.7512C15.8883 23.3723 15.1887 22.6728 15.1887 21.8098V16.9336C15.1887 16.0706 15.8883 15.3711 16.7512 15.3711C17.6142 15.3711 18.3137 16.0706 18.3137 16.9336V20.2473H19.6654C20.5284 20.2473 21.2279 20.9469 21.2279 21.8098C21.2279 22.673 20.5284 23.3723 19.6654 23.3723Z" fill="#53535C"/>
</svg>
