<svg width="80" height="80" viewBox="0 0 80 80" fill="none" xmlns="http://www.w3.org/2000/svg">
<g clip-path="url(#clip0)">
<path d="M1.5625 28.5615H70.8647V38.2675H1.5625V28.5615Z" fill="#6368E5"/>
<path d="M73.4898 8.82617H14.083C10.4931 8.82617 7.57281 11.7502 7.57281 15.3445V16.4113H6.51016C2.92031 16.4113 0 19.3354 0 22.9295V64.6549C0 68.249 2.92031 71.1732 6.51016 71.1732H65.917C69.5069 71.1732 72.4272 68.2492 72.4272 64.6549V63.5881H73.4898C77.0797 63.5881 80 60.664 80 57.0698V15.3445C80 11.7504 77.0797 8.82617 73.4898 8.82617ZM69.3022 64.6551C69.3022 66.5262 67.7836 68.0484 65.917 68.0484H6.51016C4.64359 68.0484 3.125 66.5262 3.125 64.6551V22.9295C3.125 21.0584 4.64359 19.5362 6.51016 19.5362H65.917C67.7836 19.5362 69.3022 21.0584 69.3022 22.9295V64.6551ZM76.875 57.0701C76.875 58.9412 75.3564 60.4634 73.4898 60.4634H72.4272V22.9295C72.4272 19.3352 69.5069 16.4112 65.917 16.4112H10.6978V15.3443C10.6978 13.4732 12.2164 11.951 14.083 11.951H73.4898C75.3564 11.951 76.875 13.4732 76.875 15.3443V57.0701Z" fill="#53535C"/>
<path d="M26.1925 46.6318H10.3009C9.43809 46.6318 8.7384 47.3314 8.7384 48.1943V60.1853C8.7384 61.0482 9.43809 61.7478 10.3009 61.7478H26.1925C27.0553 61.7478 27.755 61.0482 27.755 60.1853V48.1943C27.755 47.3314 27.0553 46.6318 26.1925 46.6318ZM24.63 58.6228H11.8634V49.7568H24.63V58.6228Z" fill="#53535C"/>
<path d="M55.5632 46.0576C51.0825 46.0576 47.4374 49.7057 47.4374 54.1898C47.4374 58.6739 51.0825 62.322 55.5632 62.322C60.0438 62.322 63.689 58.6739 63.689 54.1898C63.6888 49.7056 60.0436 46.0576 55.5632 46.0576ZM55.5632 59.197C52.8058 59.197 50.5624 56.9508 50.5624 54.1898C50.5624 51.4289 52.8057 49.1826 55.5632 49.1826C58.3207 49.1826 60.564 51.4289 60.564 54.1898C60.5638 56.9508 58.3205 59.197 55.5632 59.197Z" fill="#53535C"/>
</g>
<defs>
<clipPath id="clip0">
<rect width="80" height="80" fill="white"/>
</clipPath>
</defs>
</svg>
