<svg width="80" height="80" viewBox="0 0 80 80" fill="none" xmlns="http://www.w3.org/2000/svg">
<path d="M34.3967 7.17676V25.2528H50.8047V43.9211H63.0277L72.598 49.6694L73.1358 43.9211H80V7.17676H34.3967Z" fill="#B884F3"/>
<path d="M50.8046 23.6904H1.5625C0.699532 23.6904 0 24.3901 0 25.2529V64.9291C0 65.7919 0.699532 66.4916 1.5625 66.4916H9.20766L9.55922 71.373C9.59985 71.9363 9.9411 72.4337 10.4519 72.6743C10.6638 72.7741 10.8911 72.8232 11.1175 72.8232C11.4369 72.8232 11.7545 72.7252 12.0236 72.5337L20.513 66.4915H50.8046C51.6674 66.4915 52.3671 65.7918 52.3671 64.929V25.2529C52.3671 24.3901 51.6675 23.6904 50.8046 23.6904ZM49.2421 63.3666H20.0138C19.6889 63.3666 19.3724 63.4677 19.1077 63.656L12.4764 68.3757L12.22 64.8168C12.1611 63.9996 11.4809 63.3666 10.6616 63.3666H3.125V26.8154H49.2421V63.3666Z" fill="#53535C"/>
<path d="M21.8597 55.534C22.0572 55.6168 22.262 55.6562 22.4636 55.6562C23.0741 55.6562 23.6541 55.296 23.905 54.6979L31.5919 36.3815C31.9258 35.5857 31.5516 34.6699 30.7558 34.336C29.9602 34.0021 29.0444 34.3765 28.7105 35.1721L21.0236 53.4885C20.6897 54.2843 21.0641 55.2001 21.8597 55.534Z" fill="#53535C"/>
<path d="M20.2699 44.3797C23.0042 44.3797 25.2289 41.9083 25.2289 38.8704C25.2289 35.8324 23.0044 33.3608 20.2699 33.3608C17.5353 33.3608 15.3108 35.8324 15.3108 38.8704C15.3108 41.9083 17.5355 44.3797 20.2699 44.3797ZM20.2699 36.4858C21.2639 36.4858 22.1039 37.5777 22.1039 38.8704C22.1039 40.1627 21.2641 41.2547 20.2699 41.2547C19.2758 41.2547 18.4358 40.1629 18.4358 38.8704C18.4358 37.5777 19.2758 36.4858 20.2699 36.4858Z" fill="#53535C"/>
<path d="M27.1383 51.3933C27.1383 54.4311 29.3628 56.9029 32.0974 56.9029C34.8318 56.9029 37.0564 54.4313 37.0564 51.3933C37.0564 48.3555 34.8319 45.8838 32.0974 45.8838C29.3628 45.8838 27.1383 48.3555 27.1383 51.3933ZM32.0974 49.0088C33.0914 49.0088 33.9314 50.1007 33.9314 51.3933C33.9314 52.6858 33.0916 53.7779 32.0974 53.7779C31.1033 53.7779 30.2633 52.686 30.2633 51.3933C30.2633 50.1008 31.1032 49.0088 32.0974 49.0088Z" fill="#53535C"/>
</svg>
