<svg width="0" height="0" class="hidden">
  <symbol viewBox="0 0 80 80" fill="none" xmlns="http://www.w3.org/2000/svg" id="004-discount">
    <path d="M34.397 7.177v18.076h16.408V43.92h12.223l9.57 5.748.538-5.748H80V7.177H34.397z" fill="#B884F3"></path>
    <g fill="#53535C">
      <path d="M50.805 23.69H1.563C.7 23.69 0 24.39 0 25.253v39.676c0 .863.7 1.563 1.563 1.563h7.645l.351 4.881a1.563 1.563 0 0 0 2.465 1.16l8.489-6.041h30.292c.862 0 1.562-.7 1.562-1.563V25.253c0-.863-.7-1.563-1.562-1.563zm-1.563 39.677H20.014c-.325 0-.642.1-.906.289l-6.632 4.72-.256-3.56a1.563 1.563 0 0 0-1.558-1.45H3.125v-36.55h46.117v36.55z"></path>
      <path d="M21.86 55.534a1.559 1.559 0 0 0 2.045-.836l7.687-18.316a1.563 1.563 0 1 0-2.881-1.21L21.023 53.49c-.334.795.04 1.711.836 2.045zM20.27 44.38c2.734 0 4.959-2.472 4.959-5.51s-2.225-5.51-4.96-5.51c-2.734 0-4.958 2.472-4.958 5.51s2.224 5.51 4.959 5.51zm0-7.894c.994 0 1.834 1.092 1.834 2.384 0 1.293-.84 2.385-1.834 2.385-.994 0-1.834-1.092-1.834-2.385 0-1.292.84-2.384 1.834-2.384zm6.868 14.907c0 3.038 2.225 5.51 4.96 5.51 2.734 0 4.958-2.472 4.958-5.51s-2.224-5.51-4.959-5.51c-2.734 0-4.959 2.472-4.959 5.51zm4.96-2.384c.993 0 1.833 1.092 1.833 2.384 0 1.293-.84 2.385-1.834 2.385-.994 0-1.834-1.092-1.834-2.385 0-1.292.84-2.384 1.834-2.384z"></path>
    </g>
  </symbol>
  <symbol viewBox="0 0 80 80" fill="none" xmlns="http://www.w3.org/2000/svg" id="003-open-24-hours">
    <g clip-path="url(#clip0)">
      <path d="M40 64.85c13.724 0 24.85-11.126 24.85-24.85 0-13.724-11.126-24.85-24.85-24.85-13.724 0-24.85 11.126-24.85 24.85 0 13.724 11.126 24.85 24.85 24.85z" fill="#FFC390"></path>
      <g fill="#53535C">
        <path d="M75.565 45.304a1.562 1.562 0 0 0-1.83 1.238C70.629 62.662 56.44 74.36 40 74.36c-16.095 0-30.03-11.211-33.524-26.805l.408.408a1.558 1.558 0 0 0 2.21 0c.61-.61.61-1.6 0-2.21L5.88 42.54a1.562 1.562 0 0 0-2.21 0L.458 45.753a1.562 1.562 0 1 0 2.21 2.21l.578-.579C6.733 64.842 22.149 77.485 40 77.485c17.937 0 33.415-12.764 36.803-30.351a1.563 1.563 0 0 0-1.238-1.83zm3.977-13.267c-.61-.61-1.6-.61-2.21 0l-.578.578C73.267 15.158 57.851 2.515 40 2.515c-17.936 0-33.414 12.764-36.803 30.351a1.563 1.563 0 1 0 3.068.592C9.371 17.338 23.56 5.64 40 5.64c16.095 0 30.03 11.211 33.524 26.805l-.408-.408a1.563 1.563 0 0 0-2.21 2.21l3.213 3.213a1.562 1.562 0 0 0 2.21 0l3.213-3.214c.61-.61.61-1.599 0-2.21z"></path>
        <path d="M41.649 46.888a1.563 1.563 0 0 0 2.03-.874l4.323-10.873a1.563 1.563 0 0 0-2.903-1.154l-4.325 10.871c-.319.802.073 1.71.875 2.03zm8.83-10.761h3.587l-3.816 8.68a1.563 1.563 0 0 0 2.86 1.258l4.78-10.872a1.563 1.563 0 0 0-1.43-2.191h-5.981a1.563 1.563 0 0 0 0 3.125zm-20.001 6.894a1.56 1.56 0 0 0 1.345.768h3.864l-.013 1.633a1.563 1.563 0 0 0 1.549 1.576h.014c.856 0 1.554-.69 1.562-1.549l.013-1.668a1.563 1.563 0 0 0 .021-3.106c.014-2.543.02-5.104-.012-5.487-.084-1.005-.698-1.827-1.564-2.096-.865-.267-1.774.056-2.433.864-.62.759-3.261 5.51-4.369 7.516a1.562 1.562 0 0 0 .023 1.55zm5.24-4.538l-.01 2.181H34.48c.434-.773.856-1.519 1.236-2.181z"></path>
        <path d="M29.533 47.08a1.563 1.563 0 0 0-.02-3.125h-.02c-.855.01-1.754.019-2.566.022.562-.76 1.284-1.758 2.196-3.06.719-1.028 1.19-2.005 1.397-2.904.052-.2.094-.481.095-.773a4.347 4.347 0 0 0-4.345-4.345 4.352 4.352 0 0 0-4.263 3.504 1.563 1.563 0 0 0 3.067.602 1.22 1.22 0 0 1 2.413.16l-.027.213c-.094.356-.326.934-.898 1.75a122.824 122.824 0 0 1-3.293 4.518c-.706.925-1.095 1.434-.835 2.28.152.497.543.893 1.045 1.06.208.07.375.126 2.51.126.837 0 1.978-.009 3.544-.028z"></path>
      </g>
    </g>
    <defs>
      <clipPath id="clip0">
        <path fill="#fff" d="M0 0h80v80H0z"></path>
      </clipPath>
    </defs>
  </symbol>
  <symbol viewBox="0 0 80 80" fill="none" xmlns="http://www.w3.org/2000/svg" id="payment">
    <g clip-path="url(#clip0)">
      <path d="M1.563 28.561h69.302v9.706H1.563v-9.706z" fill="#6368E5"></path>
      <g fill="#53535C">
        <path d="M73.49 8.826H14.083c-3.59 0-6.51 2.924-6.51 6.518v1.067H6.51C2.92 16.411 0 19.335 0 22.93v41.726c0 3.594 2.92 6.518 6.51 6.518h59.407c3.59 0 6.51-2.924 6.51-6.518v-1.067h1.063c3.59 0 6.51-2.924 6.51-6.518V15.344c0-3.594-2.92-6.518-6.51-6.518zm-4.188 55.83a3.393 3.393 0 0 1-3.385 3.392H6.51a3.393 3.393 0 0 1-3.385-3.393V22.93a3.393 3.393 0 0 1 3.385-3.394h59.407a3.393 3.393 0 0 1 3.385 3.393v41.726zm7.573-7.586a3.393 3.393 0 0 1-3.385 3.393h-1.063V22.93c0-3.594-2.92-6.518-6.51-6.518h-55.22v-1.067a3.393 3.393 0 0 1 3.386-3.393H73.49a3.393 3.393 0 0 1 3.385 3.393V57.07z"></path>
        <path d="M26.192 46.632H10.301c-.863 0-1.563.7-1.563 1.562v11.991c0 .863.7 1.563 1.563 1.563h15.891c.863 0 1.563-.7 1.563-1.563v-11.99c0-.864-.7-1.563-1.563-1.563zm-1.562 11.99H11.863v-8.865H24.63v8.866zm30.933-12.564c-4.48 0-8.126 3.648-8.126 8.132s3.646 8.132 8.126 8.132c4.48 0 8.126-3.648 8.126-8.132s-3.645-8.132-8.126-8.132zm0 13.139a5.01 5.01 0 0 1-5-5.007 5.01 5.01 0 0 1 5-5.007 5.01 5.01 0 0 1 5.001 5.007 5.01 5.01 0 0 1-5 5.007z"></path>
      </g>
    </g>
    <defs>
      <clipPath id="clip0">
        <path fill="#fff" d="M0 0h80v80H0z"></path>
      </clipPath>
    </defs>
  </symbol>
  <symbol viewBox="0 0 80 80" fill="none" xmlns="http://www.w3.org/2000/svg" id="001-delivery-truck">
    <path d="M78.438 53.18h-.048v-9.096c0-.283-.057-.446-.113-.584l-5.664-14.983a1.562 1.562 0 0 0-1.461-1.01h-9.243v-9.793a4.26 4.26 0 0 0-4.254-4.257h-27.53a16.75 16.75 0 0 1 1.21 3.124h26.32c.623 0 1.13.509 1.13 1.133V53.18H14.108V36.125a16.577 16.577 0 0 1-3.125-.815v17.87h-.047c-.863 0-1.562.7-1.562 1.563v9.611c0 .863.699 1.563 1.562 1.563h7.251a8.18 8.18 0 0 0-.174 1.682c0 4.489 3.634 8.14 8.1 8.14 4.466 0 8.1-3.651 8.1-8.14 0-.576-.06-1.14-.175-1.683h23.007a8.18 8.18 0 0 0-.175 1.683c0 4.489 3.634 8.14 8.1 8.14 4.467 0 8.1-3.651 8.1-8.14 0-.576-.06-1.14-.174-1.683h5.54c.863 0 1.563-.699 1.563-1.562v-9.61c0-.864-.7-1.563-1.563-1.563zM61.909 30.633h8.163l4.495 11.89H61.91v-11.89zm0 15.015h13.356v7.533H61.91v-7.533zM26.114 72.614c-2.743 0-4.975-2.25-4.975-5.015 0-2.765 2.232-5.015 4.975-5.015 2.743 0 4.975 2.25 4.975 5.015 0 2.766-2.232 5.015-4.975 5.015zm38.857 0c-2.743 0-4.975-2.25-4.975-5.015 0-2.765 2.232-5.015 4.975-5.015 2.743 0 4.975 2.25 4.975 5.015 0 2.766-2.231 5.015-4.975 5.015zm11.904-9.823h-5.371a8.08 8.08 0 0 0-6.532-3.331 8.08 8.08 0 0 0-6.533 3.332H32.646a8.081 8.081 0 0 0-6.532-3.332 8.082 8.082 0 0 0-6.532 3.332H12.5v-6.486h64.375v6.486z"
      fill="#53535C"></path>
    <path d="M16.751 37.895c9.252 0 16.751-7.529 16.751-16.817 0-9.287-7.5-16.817-16.75-16.817C7.5 4.261 0 11.791 0 21.078c0 9.288 7.5 16.817 16.751 16.817z" fill="#FF8A9D"></path>
    <path d="M19.665 23.372h-2.914c-.863 0-1.562-.7-1.562-1.562v-4.876a1.562 1.562 0 1 1 3.125 0v3.313h1.351a1.562 1.562 0 1 1 0 3.125z" fill="#53535C"></path>
  </symbol>
</svg>