<svg width="20" height="18" viewBox="0 0 20 18" fill="none" xmlns="http://www.w3.org/2000/svg">
<path d="M18.4134 1.74133C17.3781 0.618439 15.9575 0 14.413 0C13.2585 0 12.2012 0.36499 11.2704 1.08475C10.8008 1.44806 10.3752 1.89255 10 2.41135C9.62494 1.8927 9.19922 1.44806 8.7294 1.08475C7.79877 0.36499 6.74149 0 5.58701 0C4.04251 0 2.62177 0.618439 1.58646 1.74133C0.563507 2.8511 0 4.36722 0 6.01059C0 7.70203 0.630341 9.25034 1.98364 10.8833C3.19427 12.3441 4.93423 13.8269 6.94916 15.544C7.63718 16.1304 8.41705 16.795 9.22684 17.5031C9.44077 17.6904 9.71527 17.7936 10 17.7936C10.2846 17.7936 10.5592 17.6904 10.7729 17.5034C11.5826 16.7952 12.363 16.1302 13.0513 15.5435C15.0659 13.8268 16.8059 12.3441 18.0165 10.8832C19.3698 9.25034 20 7.70203 20 6.01044C20 4.36722 19.4365 2.8511 18.4134 1.74133Z" fill="url(#paint0_linear)"/>
<defs>
<linearGradient id="paint0_linear" x1="2.5" y1="14.4573" x2="14.7858" y2="1.90339" gradientUnits="userSpaceOnUse">
<stop stop-color="#FF8A9D"/>
<stop offset="1" stop-color="#FFC390"/>
</linearGradient>
</defs>
</svg>
