<?xml version="1.0" encoding="utf-8"?>
<!-- Generator: Adobe Illustrator 22.1.0, SVG Export Plug-In . SVG Version: 6.00 Build 0)  -->
<svg version="1.1" id="Слой_1" xmlns="http://www.w3.org/2000/svg" xmlns:xlink="http://www.w3.org/1999/xlink" x="0px" y="0px"
	 viewBox="0 0 22 20" style="enable-background:new 0 0 22 20;" xml:space="preserve">
<style type="text/css">
	.st0{fill:#FF8A9D;stroke:#FF8A9D;stroke-width:2;}
</style>
<path class="st0" d="M19.4,2.7c-1-1.1-2.5-1.7-4-1.7c-1.2,0-2.2,0.4-3.1,1.1c-0.5,0.4-0.9,0.8-1.3,1.3c-0.4-0.5-0.8-1-1.3-1.3
	C8.8,1.4,7.7,1,6.6,1c-1.5,0-3,0.6-4,1.7C1.6,3.9,1,5.4,1,7c0,1.7,0.6,3.2,2,4.9c1.2,1.5,3,2.9,5,4.7c0.7,0.6,1.5,1.3,2.3,2
	c0.2,0.2,0.5,0.3,0.8,0.3c0.3,0,0.6-0.1,0.8-0.3c0.8-0.7,1.6-1.4,2.3-2c2-1.7,3.8-3.2,5-4.7c1.4-1.6,2-3.2,2-4.9
	C21,5.4,20.4,3.9,19.4,2.7z"/>
</svg>
